<svg width="40" height="40" viewBox="0 0 40 40" fill="none" xmlns="http://www.w3.org/2000/svg">
<g clip-path="url(#clip0_30_184)">
<path fill-rule="evenodd" clip-rule="evenodd" d="M32.4917 5.22162C32.8608 4.99932 33.3017 4.9286 33.7218 5.02431C34.1419 5.12001 34.5086 5.37471 34.745 5.73496L36.395 8.25162C36.6106 8.58054 36.7029 8.97508 36.6556 9.36548C36.6083 9.75588 36.4245 10.117 36.1367 10.385L36.1317 10.3916L36.1083 10.4133L36.0133 10.5016L35.6383 10.86C33.5633 12.8726 31.5513 14.9492 29.605 17.0866C25.9434 21.1133 21.595 26.3833 18.6684 31.4966C17.8517 32.9233 15.8567 33.23 14.6734 31.9983L3.86502 20.7683C3.71013 20.6073 3.58918 20.4168 3.50938 20.2081C3.42957 19.9995 3.39253 19.7769 3.40046 19.5536C3.40839 19.3303 3.46113 19.111 3.55554 18.9085C3.64994 18.706 3.7841 18.5246 3.95002 18.375L7.21668 15.4283C7.50375 15.1695 7.87185 15.0185 8.25798 15.0011C8.64411 14.9838 9.02425 15.1012 9.33335 15.3333L14.8484 19.4683C23.4617 10.9733 28.3484 7.71329 32.4917 5.22162ZM32.8417 8.91496C29.025 11.3016 24.2617 14.7633 16.1784 22.845C15.8947 23.1286 15.5183 23.3005 15.1181 23.3289C14.718 23.3574 14.321 23.2406 14 23L8.43002 18.8233L7.46169 19.6966L16.3234 28.9066C19.4 23.79 23.635 18.6966 27.14 14.8433C28.9857 12.8157 30.8893 10.8416 32.8483 8.92329L32.8417 8.91496Z" fill="#7D2071"/>
</g>
<defs>
<clipPath id="clip0_30_184">
<rect width="40" height="40" fill="white"/>
</clipPath>
</defs>
</svg>
