<svg width="430" height="437" viewBox="0 0 430 437" fill="none" xmlns="http://www.w3.org/2000/svg">
<g filter="url(#filter0_f_38_7584)">
<path d="M92.6874 165.589C69.0603 188.678 43.2184 204.941 20.5813 212.602C-2.14668 220.294 -21.2167 219.199 -31.8384 208.33C-42.4602 197.46 -43.1152 178.37 -34.9009 155.825C-26.7195 133.371 -9.86519 107.911 13.7619 84.8225C37.3889 61.7341 63.2308 45.4714 85.8679 37.8099C108.596 30.1176 127.666 31.2128 138.288 42.0823C148.909 52.9519 149.564 72.0421 141.35 94.5867C133.169 117.041 116.314 142.501 92.6874 165.589Z" stroke="#161616" stroke-width="2.4027"/>
</g>
<path d="M345.515 348.999C321.91 372.066 294.464 388.199 270.204 395.733C258.073 399.5 246.787 401.103 237.203 400.381C227.618 399.66 219.821 396.623 214.522 391.2C203.9 380.331 203.245 361.24 211.459 338.696C219.641 316.241 236.495 290.781 260.122 267.693C283.749 244.605 309.591 228.342 332.228 220.681C354.956 212.988 374.026 214.083 384.648 224.953C395.326 235.88 397.511 255.172 390.919 277.802C384.347 300.366 369.118 325.934 345.515 348.999Z" stroke="#161616" stroke-width="2.4027"/>
<g filter="url(#filter1_f_38_7584)">
<path d="M97.9277 169.499C74.3008 192.588 48.455 208.846 25.8116 216.501C3.07756 224.187 -16.0019 223.083 -26.634 212.203C-37.2661 201.323 -37.9295 182.223 -29.7218 159.672C-21.5468 137.211 -4.69663 111.747 18.9303 88.6589C42.5573 65.5707 68.403 49.3121 91.0465 41.6573C113.781 33.9718 132.86 35.0754 143.492 45.9555C154.124 56.8357 154.788 75.9355 146.58 98.4863C138.405 120.947 121.555 146.411 97.9277 169.499Z" stroke="#161616" stroke-width="2.4027"/>
</g>
<g filter="url(#filter2_f_38_7584)">
<path d="M106.662 176.016C83.0354 199.104 57.1831 215.356 34.5291 222.999C11.785 230.674 -7.31027 229.556 -17.9596 218.658C-28.6088 207.76 -29.2861 188.644 -21.0895 166.083C-12.9253 143.611 3.91804 118.141 27.5448 95.0527C51.1716 71.9646 77.0238 55.7131 99.6779 48.0693C122.422 40.3951 141.517 41.5129 152.167 52.4107C162.816 63.3084 163.493 82.4244 155.296 104.985C147.132 127.457 130.289 152.928 106.662 176.016Z" stroke="#161616" stroke-width="2.4027"/>
</g>
<g filter="url(#filter3_f_38_7584)">
<path d="M118.889 185.14C95.2625 208.228 69.4012 224.47 46.7324 232.098C23.9742 239.756 4.85683 238.618 -5.81655 227.696C-16.4899 216.774 -17.1866 197.635 -9.00551 175.06C-0.856487 152.573 15.9774 127.093 39.6039 104.005C63.2304 80.917 89.0918 64.6752 111.761 57.0469C134.519 49.3885 153.636 50.5263 164.31 61.4487C174.983 72.3711 175.68 91.5097 167.498 114.085C159.349 136.572 142.516 162.052 118.889 185.14Z" stroke="#161616" stroke-width="2.4027"/>
</g>
<g filter="url(#filter4_f_38_7584)">
<path d="M134.61 196.87C110.984 219.958 85.1112 236.187 62.4234 243.796C39.6472 251.434 20.5013 250.27 9.79697 239.316C-0.907393 228.362 -1.62907 209.195 6.53214 186.601C14.6617 164.094 31.4833 138.602 55.1095 115.515C78.7358 92.4271 104.609 76.1978 127.297 68.5894C150.073 60.9513 169.219 62.1148 179.923 73.0689C190.627 84.023 191.349 103.191 183.188 125.785C175.058 148.291 158.237 173.783 134.61 196.87Z" stroke="#161616" stroke-width="2.4027"/>
</g>
<g filter="url(#filter5_f_38_7584)">
<path d="M153.825 211.207C130.199 234.294 104.312 250.508 81.6006 258.092C58.8023 265.705 39.6217 264.511 28.8795 253.518C18.1373 242.525 17.3851 223.322 25.522 200.705C33.6277 178.175 50.4343 152.669 74.0602 129.581C97.6861 106.494 123.573 90.2801 146.284 82.696C169.083 75.0828 188.263 76.2777 199.006 87.2705C209.748 98.2634 210.5 117.466 202.363 140.083C194.257 162.613 177.451 188.12 153.825 211.207Z" stroke="#161616" stroke-width="2.4027"/>
</g>
<g filter="url(#filter6_f_38_7584)">
<path d="M176.533 228.151C152.907 251.238 127.003 267.433 104.265 274.989C81.4402 282.573 62.2186 281.341 51.4316 270.302C40.6447 259.263 39.8563 240.019 47.9645 217.375C56.0421 194.817 72.831 169.293 96.4564 146.206C120.082 123.119 145.986 106.923 168.725 99.3681C191.549 91.7842 210.771 93.0161 221.558 104.055C232.345 115.093 233.133 134.338 225.025 156.982C216.947 179.54 200.158 205.064 176.533 228.151Z" stroke="#161616" stroke-width="2.4027"/>
</g>
<g filter="url(#filter7_f_38_7584)">
<path d="M202.734 247.701C179.109 270.787 153.186 286.962 130.415 294.484C107.561 302.034 88.2918 300.76 77.4533 289.668C66.6147 278.577 65.7846 259.284 73.8596 236.609C81.9049 214.018 98.6733 188.474 122.298 165.388C145.923 142.302 171.847 126.127 194.617 118.605C217.472 111.055 236.741 112.329 247.579 123.421C258.418 134.512 259.248 153.806 251.173 176.48C243.128 199.071 226.359 224.615 202.734 247.701Z" stroke="#161616" stroke-width="2.4027"/>
</g>
<g filter="url(#filter8_f_38_7584)">
<path d="M232.43 269.858C208.805 292.944 182.86 309.095 160.053 316.579C137.165 324.091 117.842 322.768 106.945 311.617C96.0479 300.465 95.1705 281.117 103.208 258.408C111.216 235.78 127.962 210.214 151.586 187.128C175.21 164.042 201.156 147.891 223.962 140.406C246.851 132.895 266.174 134.218 277.071 145.369C287.968 156.52 288.845 175.868 280.808 198.578C272.799 221.206 256.054 246.772 232.43 269.858Z" stroke="#161616" stroke-width="2.4027"/>
</g>
<g filter="url(#filter9_f_38_7584)">
<path d="M265.618 294.622C241.995 317.707 216.024 333.832 193.178 341.274C170.251 348.743 150.868 347.365 139.906 336.147C128.943 324.929 128.013 305.52 136.008 282.771C143.976 260.102 160.695 234.511 184.319 211.426C207.943 188.34 233.913 172.216 256.76 164.773C279.687 157.304 299.069 158.682 310.032 169.9C320.994 181.118 321.924 200.527 313.929 223.276C305.961 245.945 289.242 271.537 265.618 294.622Z" stroke="#161616" stroke-width="2.4027"/>
</g>
<g filter="url(#filter10_f_38_7584)">
<path d="M302.301 321.992C278.678 345.076 252.68 361.172 229.789 368.568C206.819 375.99 187.371 374.552 176.336 363.26C165.302 351.968 164.313 332.491 172.262 309.699C180.184 286.984 196.875 261.365 220.498 238.281C244.121 215.196 270.118 199.101 293.009 191.704C315.979 184.283 335.428 185.721 346.462 197.013C357.497 208.305 358.486 227.781 350.536 250.574C342.614 273.288 325.924 298.908 302.301 321.992Z" stroke="#161616" stroke-width="2.4027"/>
</g>
<defs>
<filter id="filter0_f_38_7584" x="-65.7297" y="7.61236" width="237.909" height="235.187" filterUnits="userSpaceOnUse" color-interpolation-filters="sRGB">
<feFlood flood-opacity="0" result="BackgroundImageFix"/>
<feBlend mode="normal" in="SourceGraphic" in2="BackgroundImageFix" result="shape"/>
<feGaussianBlur stdDeviation="12.0135" result="effect1_foregroundBlur_38_7584"/>
</filter>
<filter id="filter1_f_38_7584" x="-58.1378" y="13.872" width="233.134" height="230.414" filterUnits="userSpaceOnUse" color-interpolation-filters="sRGB">
<feFlood flood-opacity="0" result="BackgroundImageFix"/>
<feBlend mode="normal" in="SourceGraphic" in2="BackgroundImageFix" result="shape"/>
<feGaussianBlur stdDeviation="10.8122" result="effect1_foregroundBlur_38_7584"/>
</filter>
<filter id="filter2_f_38_7584" x="-47.0861" y="22.7027" width="228.379" height="225.663" filterUnits="userSpaceOnUse" color-interpolation-filters="sRGB">
<feFlood flood-opacity="0" result="BackgroundImageFix"/>
<feBlend mode="normal" in="SourceGraphic" in2="BackgroundImageFix" result="shape"/>
<feGaussianBlur stdDeviation="9.61082" result="effect1_foregroundBlur_38_7584"/>
</filter>
<filter id="filter3_f_38_7584" x="-32.5763" y="34.1056" width="223.645" height="220.934" filterUnits="userSpaceOnUse" color-interpolation-filters="sRGB">
<feFlood flood-opacity="0" result="BackgroundImageFix"/>
<feBlend mode="normal" in="SourceGraphic" in2="BackgroundImageFix" result="shape"/>
<feGaussianBlur stdDeviation="8.40946" result="effect1_foregroundBlur_38_7584"/>
</filter>
<filter id="filter4_f_38_7584" x="-14.6059" y="48.0796" width="218.932" height="216.226" filterUnits="userSpaceOnUse" color-interpolation-filters="sRGB">
<feFlood flood-opacity="0" result="BackgroundImageFix"/>
<feBlend mode="normal" in="SourceGraphic" in2="BackgroundImageFix" result="shape"/>
<feGaussianBlur stdDeviation="7.20811" result="effect1_foregroundBlur_38_7584"/>
</filter>
<filter id="filter5_f_38_7584" x="6.82291" y="64.6242" width="214.239" height="211.54" filterUnits="userSpaceOnUse" color-interpolation-filters="sRGB">
<feFlood flood-opacity="0" result="BackgroundImageFix"/>
<feBlend mode="normal" in="SourceGraphic" in2="BackgroundImageFix" result="shape"/>
<feGaussianBlur stdDeviation="6.00676" result="effect1_foregroundBlur_38_7584"/>
</filter>
<filter id="filter6_f_38_7584" x="31.711" y="83.7403" width="209.567" height="206.876" filterUnits="userSpaceOnUse" color-interpolation-filters="sRGB">
<feFlood flood-opacity="0" result="BackgroundImageFix"/>
<feBlend mode="normal" in="SourceGraphic" in2="BackgroundImageFix" result="shape"/>
<feGaussianBlur stdDeviation="4.80541" result="effect1_foregroundBlur_38_7584"/>
</filter>
<filter id="filter7_f_38_7584" x="60.058" y="105.427" width="204.916" height="202.235" filterUnits="userSpaceOnUse" color-interpolation-filters="sRGB">
<feFlood flood-opacity="0" result="BackgroundImageFix"/>
<feBlend mode="normal" in="SourceGraphic" in2="BackgroundImageFix" result="shape"/>
<feGaussianBlur stdDeviation="3.60406" result="effect1_foregroundBlur_38_7584"/>
</filter>
<filter id="filter8_f_38_7584" x="91.8645" y="129.685" width="200.287" height="197.617" filterUnits="userSpaceOnUse" color-interpolation-filters="sRGB">
<feFlood flood-opacity="0" result="BackgroundImageFix"/>
<feBlend mode="normal" in="SourceGraphic" in2="BackgroundImageFix" result="shape"/>
<feGaussianBlur stdDeviation="2.4027" result="effect1_foregroundBlur_38_7584"/>
</filter>
<filter id="filter9_f_38_7584" x="127.129" y="156.513" width="195.679" height="193.021" filterUnits="userSpaceOnUse" color-interpolation-filters="sRGB">
<feFlood flood-opacity="0" result="BackgroundImageFix"/>
<feBlend mode="normal" in="SourceGraphic" in2="BackgroundImageFix" result="shape"/>
<feGaussianBlur stdDeviation="1.20135" result="effect1_foregroundBlur_38_7584"/>
</filter>
<filter id="filter10_f_38_7584" x="164.651" y="184.711" width="193.495" height="190.851" filterUnits="userSpaceOnUse" color-interpolation-filters="sRGB">
<feFlood flood-opacity="0" result="BackgroundImageFix"/>
<feBlend mode="normal" in="SourceGraphic" in2="BackgroundImageFix" result="shape"/>
<feGaussianBlur stdDeviation="0.600676" result="effect1_foregroundBlur_38_7584"/>
</filter>
</defs>
</svg>
