<svg width="60" height="61" viewBox="0 0 60 61" fill="none" xmlns="http://www.w3.org/2000/svg">
<path d="M45.9375 0.46875L14.0625 0.46875C6.296 0.46875 5.01959e-08 6.76475 1.12116e-07 14.5312L3.66245e-07 46.4062C4.28165e-07 54.1728 6.296 60.4687 14.0625 60.4687L45.9375 60.4687C53.704 60.4687 60 54.1728 60 46.4062L60 14.5312C60 6.76475 53.704 0.46875 45.9375 0.46875Z" fill="url(#paint0_radial_135_32)"/>
<path d="M45.9375 0.46875L14.0625 0.46875C6.296 0.46875 5.01959e-08 6.76475 1.12116e-07 14.5312L3.66245e-07 46.4062C4.28165e-07 54.1728 6.296 60.4687 14.0625 60.4687L45.9375 60.4687C53.704 60.4687 60 54.1728 60 46.4062L60 14.5312C60 6.76475 53.704 0.46875 45.9375 0.46875Z" fill="url(#paint1_radial_135_32)"/>
<path d="M30.0021 7.03125C23.637 7.03125 22.838 7.05914 20.3381 7.17281C17.843 7.28719 16.1398 7.68211 14.6496 8.26172C13.1079 8.86031 11.8003 9.66117 10.4977 10.9643C9.19383 12.2672 8.39297 13.5748 7.7925 15.1158C7.21125 16.6064 6.81586 18.3103 6.70359 20.8043C6.5918 23.3044 6.5625 24.1036 6.5625 30.469C6.5625 36.8344 6.59063 37.6308 6.70406 40.1306C6.81891 42.6258 7.21383 44.329 7.79297 45.8191C8.39203 47.3609 9.19289 48.6684 10.496 49.9711C11.7984 51.2749 13.106 52.0777 14.6466 52.6763C16.1379 53.2559 17.8413 53.6508 20.336 53.7652C22.8361 53.8788 23.6344 53.9067 29.9993 53.9067C36.3652 53.9067 37.1616 53.8788 39.6614 53.7652C42.1566 53.6508 43.8616 53.2559 45.353 52.6763C46.894 52.0777 48.1997 51.2749 49.5019 49.9711C50.8057 48.6684 51.6063 47.3609 52.207 45.8198C52.7831 44.329 53.1787 42.6253 53.2959 40.1311C53.4082 37.6312 53.4375 36.8344 53.4375 30.469C53.4375 24.1036 53.4082 23.3048 53.2959 20.8048C53.1787 18.3096 52.7831 16.6066 52.207 15.1165C51.6063 13.5748 50.8057 12.2672 49.5019 10.9643C48.1983 9.6607 46.8945 8.85984 45.3516 8.26195C43.8574 7.68211 42.1533 7.28695 39.6581 7.17281C37.158 7.05914 36.3621 7.03125 29.9948 7.03125L30.0021 7.03125ZM27.8995 11.2549C28.5237 11.254 29.22 11.2549 30.0021 11.2549C36.2602 11.2549 37.0017 11.2774 39.473 11.3897C41.7581 11.4942 42.9984 11.876 43.8246 12.1969C44.9184 12.6216 45.6982 13.1295 46.518 13.95C47.3384 14.7703 47.846 15.5515 48.2719 16.6453C48.5927 17.4703 48.975 18.7106 49.0791 20.9958C49.1913 23.4666 49.2157 24.2086 49.2157 30.4636C49.2157 36.7186 49.1913 37.4609 49.0791 39.9314C48.9745 42.2166 48.5927 43.4569 48.2719 44.2821C47.8472 45.3759 47.3384 46.1548 46.518 46.9746C45.6977 47.7949 44.9189 48.3026 43.8246 48.7275C42.9994 49.0498 41.7581 49.4306 39.473 49.5352C37.0022 49.6474 36.2602 49.6718 30.0021 49.6718C23.7438 49.6718 23.002 49.6474 20.5315 49.5352C18.2463 49.4297 17.006 49.0479 16.1791 48.727C15.0855 48.3021 14.3041 47.7945 13.4838 46.9741C12.6635 46.1538 12.1559 45.3745 11.73 44.2802C11.4091 43.455 11.0269 42.2147 10.9228 39.9295C10.8105 37.4587 10.788 36.7167 10.788 30.4577C10.788 24.199 10.8105 23.4607 10.9228 20.9899C11.0273 18.7048 11.4091 17.4645 11.73 16.6383C12.1549 15.5445 12.6635 14.7633 13.4841 13.943C14.3044 13.1227 15.0855 12.6148 16.1794 12.1891C17.0055 11.8669 18.2463 11.486 20.5315 11.381C22.6936 11.2833 23.5315 11.254 27.8995 11.2491L27.8995 11.2549ZM42.5131 15.1465C40.9603 15.1465 39.7006 16.4051 39.7006 17.958C39.7006 19.5108 40.9603 20.7705 42.5131 20.7705C44.0658 20.7705 45.3256 19.5108 45.3256 17.958C45.3256 16.4053 44.0658 15.1455 42.5131 15.1455L42.5131 15.1465ZM30.0021 18.4327C23.3552 18.4327 17.966 23.8219 17.966 30.469C17.966 37.1161 23.3552 42.5027 30.0021 42.5027C36.6492 42.5027 42.0366 37.1161 42.0366 30.469C42.0366 23.8221 36.6488 18.4327 30.0016 18.4327L30.0021 18.4327ZM30.0021 22.6563C34.3167 22.6563 37.8148 26.1539 37.8148 30.469C37.8148 34.7836 34.3167 38.2816 30.0021 38.2816C25.6873 38.2816 22.1897 34.7836 22.1897 30.469C22.1897 26.1539 25.6873 22.6563 30.0021 22.6563Z" fill="white"/>
<defs>
<radialGradient id="paint0_radial_135_32" cx="0" cy="0" r="1" gradientUnits="userSpaceOnUse" gradientTransform="translate(15.9375 65.0899) rotate(-90) scale(59.4645 55.3066)">
<stop stop-color="#FFDD55"/>
<stop offset="0.1" stop-color="#FFDD55"/>
<stop offset="0.5" stop-color="#FF543E"/>
<stop offset="1" stop-color="#C837AB"/>
</radialGradient>
<radialGradient id="paint1_radial_135_32" cx="0" cy="0" r="1" gradientUnits="userSpaceOnUse" gradientTransform="translate(-10.0502 4.79086) rotate(78.681) scale(26.5809 109.567)">
<stop stop-color="#3771C8"/>
<stop offset="0.128" stop-color="#3771C8"/>
<stop offset="1" stop-color="#6600FF" stop-opacity="0"/>
</radialGradient>
</defs>
</svg>
