<svg width="1284" height="1369" viewBox="0 0 1284 1369" fill="none" xmlns="http://www.w3.org/2000/svg">
<path d="M1075.58 189.822C805.501 258.48 264.912 445.852 266.78 644.129C268.691 891.875 953.902 600.078 964.473 440.037C975.045 279.995 837.485 248.527 764.458 215.173C691.43 181.818 353.986 132.841 205.434 214.285C87.0125 279.804 62.0592 333.344 65.416 352.03C45.5829 439.988 126.053 520.65 615.911 142.747" stroke="black"/>
<path d="M1060.01 275.501C799.521 316.358 273.179 445.954 259.215 634.254C240.935 869.352 916.735 654.885 942.754 506.592C968.772 358.298 843.318 319.539 778.785 285.985C714.253 252.432 401.328 179.471 255.655 245.533C139.884 299.186 113.642 348.759 117.025 367.242C92.3724 449.208 163.017 532.491 660.782 217.818" stroke="black"/>
<path d="M1042.54 345.966C794.344 361.414 288.053 437.548 260.101 614.724C223.968 835.665 882.21 694.162 921.583 559.015C960.955 423.869 847.699 379.745 791.025 347.226C734.352 314.706 447.329 221.824 306.021 273.75C194.011 316.597 166.97 362.438 170.431 380.889C141.871 456.759 202.913 541.575 701.297 288.204" stroke="black"/>
<path d="M1020.35 421.788C786.789 414.468 305.672 442.01 265.644 607.168C214.092 812.764 847.366 739.042 897.881 618.154C948.397 497.266 847.183 449.654 797.583 419.277C747.983 388.9 487.706 280.196 352.046 319.367C244.731 352.566 217.326 394.964 220.884 413.557C189.303 483.343 241.081 568.669 733.233 373.885" stroke="black"/>
<path d="M995.406 490.178C778.433 462.934 326.88 447.217 276.728 599.719C212.248 789.11 813.96 777.267 873.324 671.454C932.688 565.64 843.124 516.334 799.679 489.068C756.234 461.803 523.019 341.346 394.069 369.253C292.204 394.035 264.807 433.323 268.451 452.237C234.698 516.059 277.653 600.949 757.239 461.317" stroke="black"/>
<path d="M969.684 543.035C770.852 498.863 352.481 445.595 294.164 585.056C219.266 757.708 783.704 801.232 849.575 711.008C915.447 620.783 836.916 571.467 798.595 548.128C760.274 524.788 553.922 396.557 432.519 414.768C336.669 432.416 309.589 468.964 313.273 488.374C278.146 546.454 312.811 630.049 774.09 541.486" stroke="black"/>
<path d="M950.24 583.523C770.692 525.527 388.32 440.687 323.774 566.975C240.947 722.672 763.336 814.554 833.362 740.131C903.388 665.707 835.068 617.934 800.748 599.168C766.428 580.402 586.245 448.225 472.993 458.359C383.537 470.181 357.012 504.387 360.661 524.461C324.896 577.113 351.883 658.65 789.768 616.508" stroke="black"/>
<path d="M954.657 625.043C795.121 556.38 450.746 446.125 381.856 559.346C293.531 698.185 770.073 831.037 841.925 772.327C913.777 713.618 854.661 668.781 823.149 655.061C791.637 641.34 636.462 508.839 531.734 512.536C448.861 519.842 423.059 552.121 426.565 573.017C390.826 620.64 410.813 699.457 820.926 698.608" stroke="black"/>
<path d="M960.338 657.154C821.126 580.985 515.922 451.545 444.493 552.039C353.01 674.415 780.909 840.588 852.318 797.214C923.727 753.839 872.642 713.156 842.7 704.77C812.758 696.383 680.996 566.921 584.931 565.813C508.645 569.892 483.663 600.666 486.891 622.525C451.761 665.591 465.479 741.134 844.192 776.061" stroke="black"/>
<path d="M968.454 680.277C849.469 599.72 583.79 457.303 511.523 545.624C419.093 652.213 796.571 843.921 865.36 815.221C934.149 786.522 889.786 751.014 860.152 748.064C830.518 745.113 720.179 621.744 632.692 617.427C562.818 619.526 538.68 649.217 541.467 672.161C507.442 711.201 515.661 783.028 860.128 847.921" stroke="black"/>
<path d="M980.103 694.971C880.852 613.049 654.249 463.741 582.716 540.644C491.391 632.383 817.685 841.824 881.803 826.872C945.921 811.92 906.856 782.399 876.269 784.8C845.682 787.201 754.425 672.629 675.216 666.635C611.407 667.933 588.069 696.95 590.228 721.078C557.709 756.673 561.222 824.456 869.402 913.309" stroke="black"/>
<path d="M996.301 701.925C915.91 621.522 727.161 471.195 657.781 537.613C569.428 615.676 844.776 835.152 902.326 832.772C959.877 830.392 924.603 807.449 891.827 814.929C859.051 822.409 784.233 718.95 712.794 712.722C654.547 714.313 631.895 743.045 633.218 768.43C602.508 801.197 602.118 864.72 872.784 971.43" stroke="black"/>
<path d="M1017.97 701.947C955.206 625.766 802.348 479.986 736.373 537.012C652.645 602.78 878.255 824.816 927.526 833.605C976.797 842.394 943.75 826.391 907.598 838.497C871.447 850.602 810.174 760.154 745.807 755.019C692.471 757.891 670.329 786.7 670.588 813.383C641.889 843.962 638.397 903.122 871.132 1021.59" stroke="black"/>
<path d="M1045.9 695.966C999.214 626.486 879.598 490.428 818.09 539.288C740.408 594.324 918.42 811.778 957.908 830.13C997.395 848.482 964.984 839.548 924.341 855.651C883.698 871.755 832.884 795.769 774.716 792.918C725.511 797.939 703.644 827.146 702.599 855.139C676.009 884.176 670.195 938.981 865.384 1063.2" stroke="black"/>
<path d="M1080.8 685.025C1048.32 624.463 958.66 502.835 902.485 544.864C832.015 590.879 965.446 797.049 993.877 823.183C1022.31 849.316 988.947 847.343 942.79 866.653C896.633 885.962 853.051 825.428 800.06 825.897C754.091 833.796 732.209 863.677 729.61 892.956C705.126 921.096 697.742 971.657 856.541 1095.82" stroke="black"/>
<path d="M1123.18 670.296C1102.8 620.579 1039.24 517.548 989.056 554.164C926.699 592.983 1019.38 781.708 1035.73 813.694C1052.08 845.681 1016.21 850.331 963.635 871.902C911.056 893.472 871.405 848.907 822.432 853.555C778.713 864.911 756.481 895.691 752.071 926.196C729.59 954.064 721.342 1000.59 845.65 1119.17" stroke="black"/>
<path d="M1173.43 653.146C1162.8 615.876 1121.01 535.008 1077.24 567.683C1023.62 601.21 1080.11 766.959 1083.62 802.755C1087.14 838.552 1047.28 849.26 987.501 872.011C927.725 894.761 888.684 866.201 842.466 875.7C799.935 890.931 776.977 922.776 770.5 954.409C749.823 982.602 741.362 1025.4 833.775 1133.24" stroke="black"/>
<path d="M1231.7 635.349C1228.28 611.784 1203.5 555.989 1166.37 586.222C1121.83 616.405 1147.35 754.359 1137.54 791.839C1127.73 829.319 1082.48 845.304 1014.88 868.033C947.283 890.762 905.575 877.769 860.765 892.588C818.31 911.943 794.22 944.957 785.421 977.583C766.257 1006.65 758.17 1046.1 821.923 1138.5" stroke="black"/>
<path d="M1297.65 620.113C1298.79 611.146 1285.92 582.634 1255.42 611.921C1220.01 640.718 1220.34 746.839 1197.01 783.829C1173.69 820.819 1121.76 841.095 1045.88 862.5C969.996 883.904 922.446 885.574 877.642 905.972C834.12 929.527 808.468 963.743 797.102 997.19C779.076 1027.63 771.873 1064.2 810.784 1136.97" stroke="black"/>
<path d="M1366.94 624.09C1369.88 630.234 1363.59 630.481 1339.51 660.291C1313 689.628 1294.35 760.724 1257.6 795.035C1220.86 829.346 1161.11 852.739 1076.67 871.436C992.225 890.133 935.817 905.11 889.587 931.133C843.85 958.786 816.194 994.169 802.03 1028.23C784.69 1060.48 778.797 1094.67 797.191 1144.23" stroke="black"/>
</svg>
