<svg width="1051" height="934" viewBox="0 0 1051 934" fill="none" xmlns="http://www.w3.org/2000/svg">
<path d="M1 353.081C37.661 423.779 204.85 349.33 214.483 472.326C221.043 608.782 225.411 892.901 190.402 937.727C155.393 982.554 210.546 1124.35 242.499 1189.65" stroke="black" stroke-width="0.463086"/>
<g filter="url(#filter0_f_38_2173)">
<path d="M202.443 29.1526C273.14 -7.50838 186.883 163.818 309.879 154.186C446.335 147.625 730.453 143.257 775.28 178.266C820.107 213.275 961.903 158.122 1027.2 126.169" stroke="black" stroke-width="0.463086"/>
</g>
<g filter="url(#filter1_f_38_2173)">
<path d="M11.9724 344.171C54.5409 411.477 196.33 323.948 216.438 445.671C234.635 581.067 263.268 863.773 232.218 911.427C201.167 959.082 268.237 1095.65 305.653 1157.97" stroke="black" stroke-width="0.463086"/>
</g>
<g filter="url(#filter2_f_38_2173)">
<path d="M22.647 335.502C70.6639 399.036 186.897 302.419 217.055 422.048C246.447 555.463 298.484 834.809 271.503 884.881C244.522 934.952 322.714 1065.47 365.182 1124.47" stroke="black" stroke-width="0.463086"/>
</g>
<g filter="url(#filter3_f_38_2173)">
<path d="M33.0229 327.076C86.0178 386.522 177.016 284.546 216.744 401.346C256.822 531.949 331.267 806.176 308.421 858.264C285.575 910.352 374.059 1034.12 421.156 1089.49" stroke="black" stroke-width="0.463086"/>
</g>
<g filter="url(#filter4_f_38_2173)">
<path d="M43.1008 318.892C100.599 373.994 167.089 270.09 215.864 383.411C266.071 510.465 361.813 778.001 343.127 831.722C324.441 885.443 422.368 1001.88 473.667 1053.39" stroke="black" stroke-width="0.463086"/>
</g>
<g filter="url(#filter5_f_38_2173)">
<path d="M52.8804 310.951C114.409 361.512 157.457 258.786 214.724 368.062C274.464 490.921 390.31 750.386 375.771 805.374C361.232 860.363 467.745 969.005 522.819 1016.45" stroke="black" stroke-width="0.463086"/>
</g>
<g filter="url(#filter6_f_38_2173)">
<path d="M62.3616 303.251C127.457 349.129 148.4 250.347 213.582 355.095C282.234 473.205 416.929 723.405 406.491 779.317C396.053 835.228 510.3 935.706 568.729 978.956" stroke="black" stroke-width="0.463086"/>
</g>
<g filter="url(#filter7_f_38_2173)">
<path d="M71.5444 295.794C139.755 336.897 140.141 244.478 212.65 344.294C289.576 457.19 441.827 697.111 435.416 753.627C429.005 810.142 550.148 902.189 611.521 941.148" stroke="black" stroke-width="0.463086"/>
</g>
<g filter="url(#filter8_f_38_2173)">
<path d="M80.429 288.579C151.321 324.862 132.85 240.881 212.094 335.438C296.651 442.738 465.145 671.545 462.661 728.368C460.178 785.192 587.402 868.632 651.325 903.249" stroke="black" stroke-width="0.463086"/>
</g>
<g filter="url(#filter9_f_38_2173)">
<path d="M89.0151 281.606C162.176 313.065 126.647 239.262 212.04 328.305C303.586 429.708 487.01 646.729 488.334 703.592C489.657 760.454 622.179 835.196 688.275 865.458" stroke="black" stroke-width="0.463086"/>
</g>
<g filter="url(#filter10_f_38_2173)">
<path d="M97.3032 274.876C172.343 301.544 121.608 239.338 212.574 322.68C310.478 417.959 507.534 622.681 512.528 679.34C517.521 735.998 654.593 802.024 722.505 827.955" stroke="black" stroke-width="0.463086"/>
</g>
<g filter="url(#filter11_f_38_2173)">
<path d="M105.293 268.388C181.848 290.333 117.772 240.838 213.75 318.356C317.396 407.354 526.817 599.41 535.328 655.647C543.839 711.885 684.756 769.249 754.151 790.902" stroke="black" stroke-width="0.463086"/>
</g>
<g filter="url(#filter12_f_38_2173)">
<path d="M119.415 254.469C197.148 271.785 121.573 235.836 222.024 307.462C330.819 390.088 551.374 569.246 563.241 624.872C575.108 680.498 719.21 729.313 789.778 746.767" stroke="black" stroke-width="0.463086"/>
</g>
<g filter="url(#filter13_f_38_2173)">
<path d="M133.774 238.141C212.375 250.95 127.088 229.122 231.5 294.841C344.874 371.061 575.386 537.214 590.438 592.064C605.49 646.914 752.165 687.345 823.621 700.704" stroke="black" stroke-width="0.463086"/>
</g>
<g filter="url(#filter14_f_38_2173)">
<path d="M146.433 221.725C225.622 230.168 132.332 222.802 240.218 282.647C357.633 352.481 596.98 505.634 615.042 559.568C633.104 613.501 781.79 645.76 853.876 655.148" stroke="black" stroke-width="0.463086"/>
</g>
<g filter="url(#filter15_f_38_2173)">
<path d="M157.474 205.396C237 209.632 137.317 216.862 248.222 270.908C369.171 334.424 616.295 474.683 637.188 527.585C658.082 580.486 808.268 604.823 880.75 610.379" stroke="black" stroke-width="0.463086"/>
</g>
<g filter="url(#filter16_f_38_2173)">
<path d="M166.996 189.313C246.633 189.516 142.056 211.29 255.555 259.649C379.567 316.959 633.477 444.521 657.023 496.296C680.57 548.071 831.796 564.77 904.466 566.648" stroke="black" stroke-width="0.463086"/>
</g>
<g filter="url(#filter17_f_38_2173)">
<path d="M175.104 173.611C254.658 169.965 146.557 206.074 262.261 248.891C388.897 300.141 648.675 415.283 674.696 465.86C700.717 516.437 852.574 525.808 925.249 524.172" stroke="black" stroke-width="0.463086"/>
</g>
<g filter="url(#filter18_f_38_2173)">
<path d="M181.911 158.403C261.213 151.101 150.829 201.2 268.38 238.65C397.24 284.019 662.04 387.089 690.359 436.416C718.679 485.742 870.806 488.117 943.33 483.139" stroke="black" stroke-width="0.463086"/>
</g>
<g filter="url(#filter19_f_38_2173)">
<path d="M187.536 143.785C266.444 133.026 154.878 196.656 273.952 228.935C404.671 268.633 673.72 360.039 704.167 408.081C734.615 456.123 886.7 451.852 958.937 443.711" stroke="black" stroke-width="0.463086"/>
</g>
<g filter="url(#filter20_f_38_2173)">
<path d="M192.096 129.832C270.491 115.819 158.708 192.428 279.015 219.756C411.264 254.014 683.863 334.215 716.271 380.957C748.679 427.699 900.458 417.142 972.296 406.02" stroke="black" stroke-width="0.463086"/>
</g>
<g filter="url(#filter21_f_38_2173)">
<path d="M195.71 116.604C273.499 99.5427 162.324 188.506 283.606 211.117C417.091 240.187 692.613 309.687 726.821 355.129C761.028 400.57 912.279 384.097 983.629 370.18" stroke="black" stroke-width="0.463086"/>
</g>
<g filter="url(#filter22_f_38_2173)">
<path d="M198.493 104.149C275.603 84.2434 165.728 184.877 287.759 203.021C422.221 227.172 700.108 286.512 735.961 330.667C771.813 374.822 922.358 352.808 993.148 336.282" stroke="black" stroke-width="0.463086"/>
</g>
<g filter="url(#filter23_f_38_2173)">
<path d="M200.554 92.497C276.934 69.9521 168.922 181.53 291.504 195.468C426.717 214.981 706.48 264.732 743.829 307.629C781.179 350.525 930.878 323.348 1001.06 304.398" stroke="black" stroke-width="0.463086"/>
</g>
<g filter="url(#filter24_f_38_2173)">
<path d="M202.002 81.6694C277.62 56.6876 171.906 178.455 294.872 188.456C430.641 203.625 711.855 244.382 750.56 286.059C789.266 327.736 938.016 295.774 1007.55 274.584" stroke="black" stroke-width="0.463086"/>
</g>
<g filter="url(#filter25_f_38_2173)">
<path d="M202.936 71.6786C277.778 44.4596 174.68 175.642 297.89 181.982C434.049 193.108 716.351 225.486 756.278 265.994C796.206 306.502 943.94 270.131 1012.82 246.883" stroke="black" stroke-width="0.463086"/>
</g>
<g filter="url(#filter26_f_38_2173)">
<path d="M203.448 62.5288C277.516 33.2688 177.245 173.082 300.582 176.044C436.995 183.434 720.078 208.063 761.101 247.461C802.124 286.859 948.806 246.454 1017.02 221.326" stroke="black" stroke-width="0.463086"/>
</g>
<g filter="url(#filter27_f_38_2173)">
<path d="M203.625 54.216C276.936 23.1076 179.599 170.767 302.972 170.634C439.528 174.6 723.139 192.122 765.137 230.478C807.135 268.835 952.758 224.764 1020.32 197.933" stroke="black" stroke-width="0.463086"/>
</g>
<g filter="url(#filter28_f_38_2173)">
<path d="M203.546 46.7337C276.13 13.965 181.742 168.689 305.079 165.749C441.69 166.606 725.626 177.669 768.486 215.061C811.346 252.452 955.928 205.078 1022.86 176.717" stroke="black" stroke-width="0.463086"/>
</g>
<g filter="url(#filter29_f_38_2173)">
<path d="M203.281 40.0718C275.18 5.82699 183.67 166.843 306.922 161.383C443.521 159.45 727.625 164.709 771.24 201.217C814.855 237.725 958.439 187.407 1024.78 157.685" stroke="black" stroke-width="0.463086"/>
</g>
<g filter="url(#filter30_f_38_2173)">
<path d="M202.895 34.2156C274.162 -1.32531 185.384 165.22 308.517 157.53C445.059 153.124 729.211 153.239 773.48 188.951C817.749 224.663 960.398 171.754 1026.19 140.835" stroke="black" stroke-width="0.463086"/>
</g>
<defs>
<filter id="filter0_f_38_2173" x="179.182" y="0.614262" width="871.273" height="212.267" filterUnits="userSpaceOnUse" color-interpolation-filters="sRGB">
<feFlood flood-opacity="0" result="BackgroundImageFix"/>
<feBlend mode="normal" in="SourceGraphic" in2="BackgroundImageFix" result="shape"/>
<feGaussianBlur stdDeviation="11.5771" result="effect1_foregroundBlur_38_2173"/>
</filter>
<filter id="filter1_f_38_2173" x="10.5154" y="342.786" width="296.597" height="816.567" filterUnits="userSpaceOnUse" color-interpolation-filters="sRGB">
<feFlood flood-opacity="0" result="BackgroundImageFix"/>
<feBlend mode="normal" in="SourceGraphic" in2="BackgroundImageFix" result="shape"/>
<feGaussianBlur stdDeviation="0.630613" result="effect1_foregroundBlur_38_2173"/>
</filter>
<filter id="filter2_f_38_2173" x="19.974" y="332.874" width="347.884" height="794.216" filterUnits="userSpaceOnUse" color-interpolation-filters="sRGB">
<feFlood flood-opacity="0" result="BackgroundImageFix"/>
<feBlend mode="normal" in="SourceGraphic" in2="BackgroundImageFix" result="shape"/>
<feGaussianBlur stdDeviation="1.24408" result="effect1_foregroundBlur_38_2173"/>
</filter>
<filter id="filter3_f_38_2173" x="29.1693" y="323.241" width="395.845" height="770.084" filterUnits="userSpaceOnUse" color-interpolation-filters="sRGB">
<feFlood flood-opacity="0" result="BackgroundImageFix"/>
<feBlend mode="normal" in="SourceGraphic" in2="BackgroundImageFix" result="shape"/>
<feGaussianBlur stdDeviation="1.84041" result="effect1_foregroundBlur_38_2173"/>
</filter>
<filter id="filter4_f_38_2173" x="38.1015" y="313.886" width="440.569" height="744.506" filterUnits="userSpaceOnUse" color-interpolation-filters="sRGB">
<feFlood flood-opacity="0" result="BackgroundImageFix"/>
<feBlend mode="normal" in="SourceGraphic" in2="BackgroundImageFix" result="shape"/>
<feGaussianBlur stdDeviation="2.41959" result="effect1_foregroundBlur_38_2173"/>
</filter>
<filter id="filter5_f_38_2173" x="46.7701" y="304.808" width="482.163" height="717.783" filterUnits="userSpaceOnUse" color-interpolation-filters="sRGB">
<feFlood flood-opacity="0" result="BackgroundImageFix"/>
<feBlend mode="normal" in="SourceGraphic" in2="BackgroundImageFix" result="shape"/>
<feGaussianBlur stdDeviation="2.98163" result="effect1_foregroundBlur_38_2173"/>
</filter>
<filter id="filter6_f_38_2173" x="55.1752" y="296.009" width="520.745" height="690.187" filterUnits="userSpaceOnUse" color-interpolation-filters="sRGB">
<feFlood flood-opacity="0" result="BackgroundImageFix"/>
<feBlend mode="normal" in="SourceGraphic" in2="BackgroundImageFix" result="shape"/>
<feGaussianBlur stdDeviation="3.52652" result="effect1_foregroundBlur_38_2173"/>
</filter>
<filter id="filter7_f_38_2173" x="63.3165" y="287.487" width="556.437" height="661.965" filterUnits="userSpaceOnUse" color-interpolation-filters="sRGB">
<feFlood flood-opacity="0" result="BackgroundImageFix"/>
<feBlend mode="normal" in="SourceGraphic" in2="BackgroundImageFix" result="shape"/>
<feGaussianBlur stdDeviation="4.05427" result="effect1_foregroundBlur_38_2173"/>
</filter>
<filter id="filter8_f_38_2173" x="71.1937" y="279.18" width="589.371" height="633.402" filterUnits="userSpaceOnUse" color-interpolation-filters="sRGB">
<feFlood flood-opacity="0" result="BackgroundImageFix"/>
<feBlend mode="normal" in="SourceGraphic" in2="BackgroundImageFix" result="shape"/>
<feGaussianBlur stdDeviation="4.56488" result="effect1_foregroundBlur_38_2173"/>
</filter>
<filter id="filter9_f_38_2173" x="78.8069" y="271.277" width="619.681" height="604.509" filterUnits="userSpaceOnUse" color-interpolation-filters="sRGB">
<feFlood flood-opacity="0" result="BackgroundImageFix"/>
<feBlend mode="normal" in="SourceGraphic" in2="BackgroundImageFix" result="shape"/>
<feGaussianBlur stdDeviation="5.05834" result="effect1_foregroundBlur_38_2173"/>
</filter>
<filter id="filter10_f_38_2173" x="86.1563" y="263.588" width="647.5" height="575.653" filterUnits="userSpaceOnUse" color-interpolation-filters="sRGB">
<feFlood flood-opacity="0" result="BackgroundImageFix"/>
<feBlend mode="normal" in="SourceGraphic" in2="BackgroundImageFix" result="shape"/>
<feGaussianBlur stdDeviation="5.53466" result="effect1_foregroundBlur_38_2173"/>
</filter>
<filter id="filter11_f_38_2173" x="93.2416" y="256.178" width="672.966" height="546.932" filterUnits="userSpaceOnUse" color-interpolation-filters="sRGB">
<feFlood flood-opacity="0" result="BackgroundImageFix"/>
<feBlend mode="normal" in="SourceGraphic" in2="BackgroundImageFix" result="shape"/>
<feGaussianBlur stdDeviation="5.99383" result="effect1_foregroundBlur_38_2173"/>
</filter>
<filter id="filter12_f_38_2173" x="106.493" y="241.371" width="696.211" height="518.492" filterUnits="userSpaceOnUse" color-interpolation-filters="sRGB">
<feFlood flood-opacity="0" result="BackgroundImageFix"/>
<feBlend mode="normal" in="SourceGraphic" in2="BackgroundImageFix" result="shape"/>
<feGaussianBlur stdDeviation="6.43587" result="effect1_foregroundBlur_38_2173"/>
</filter>
<filter id="filter13_f_38_2173" x="120.015" y="224.191" width="717.37" height="490.462" filterUnits="userSpaceOnUse" color-interpolation-filters="sRGB">
<feFlood flood-opacity="0" result="BackgroundImageFix"/>
<feBlend mode="normal" in="SourceGraphic" in2="BackgroundImageFix" result="shape"/>
<feGaussianBlur stdDeviation="6.86075" result="effect1_foregroundBlur_38_2173"/>
</filter>
<filter id="filter14_f_38_2173" x="131.871" y="206.957" width="736.571" height="462.957" filterUnits="userSpaceOnUse" color-interpolation-filters="sRGB">
<feFlood flood-opacity="0" result="BackgroundImageFix"/>
<feBlend mode="normal" in="SourceGraphic" in2="BackgroundImageFix" result="shape"/>
<feGaussianBlur stdDeviation="7.2685" result="effect1_foregroundBlur_38_2173"/>
</filter>
<filter id="filter15_f_38_2173" x="142.144" y="189.847" width="753.942" height="436.081" filterUnits="userSpaceOnUse" color-interpolation-filters="sRGB">
<feFlood flood-opacity="0" result="BackgroundImageFix"/>
<feBlend mode="normal" in="SourceGraphic" in2="BackgroundImageFix" result="shape"/>
<feGaussianBlur stdDeviation="7.6591" result="effect1_foregroundBlur_38_2173"/>
</filter>
<filter id="filter16_f_38_2173" x="150.93" y="173.016" width="769.607" height="409.928" filterUnits="userSpaceOnUse" color-interpolation-filters="sRGB">
<feFlood flood-opacity="0" result="BackgroundImageFix"/>
<feBlend mode="normal" in="SourceGraphic" in2="BackgroundImageFix" result="shape"/>
<feGaussianBlur stdDeviation="8.03255" result="effect1_foregroundBlur_38_2173"/>
</filter>
<filter id="filter17_f_38_2173" x="158.315" y="156.347" width="783.717" height="385.005" filterUnits="userSpaceOnUse" color-interpolation-filters="sRGB">
<feFlood flood-opacity="0" result="BackgroundImageFix"/>
<feBlend mode="normal" in="SourceGraphic" in2="BackgroundImageFix" result="shape"/>
<feGaussianBlur stdDeviation="8.38887" result="effect1_foregroundBlur_38_2173"/>
</filter>
<filter id="filter18_f_38_2173" x="164.434" y="139.999" width="796.368" height="362.625" filterUnits="userSpaceOnUse" color-interpolation-filters="sRGB">
<feFlood flood-opacity="0" result="BackgroundImageFix"/>
<feBlend mode="normal" in="SourceGraphic" in2="BackgroundImageFix" result="shape"/>
<feGaussianBlur stdDeviation="8.72804" result="effect1_foregroundBlur_38_2173"/>
</filter>
<filter id="filter19_f_38_2173" x="169.405" y="124.242" width="807.658" height="342.858" filterUnits="userSpaceOnUse" color-interpolation-filters="sRGB">
<feFlood flood-opacity="0" result="BackgroundImageFix"/>
<feBlend mode="normal" in="SourceGraphic" in2="BackgroundImageFix" result="shape"/>
<feGaussianBlur stdDeviation="9.05006" result="effect1_foregroundBlur_38_2173"/>
</filter>
<filter id="filter20_f_38_2173" x="173.345" y="109.194" width="817.697" height="325.291" filterUnits="userSpaceOnUse" color-interpolation-filters="sRGB">
<feFlood flood-opacity="0" result="BackgroundImageFix"/>
<feBlend mode="normal" in="SourceGraphic" in2="BackgroundImageFix" result="shape"/>
<feGaussianBlur stdDeviation="9.35494" result="effect1_foregroundBlur_38_2173"/>
</filter>
<filter id="filter21_f_38_2173" x="176.375" y="94.9283" width="826.584" height="309.506" filterUnits="userSpaceOnUse" color-interpolation-filters="sRGB">
<feFlood flood-opacity="0" result="BackgroundImageFix"/>
<feBlend mode="normal" in="SourceGraphic" in2="BackgroundImageFix" result="shape"/>
<feGaussianBlur stdDeviation="9.64268" result="effect1_foregroundBlur_38_2173"/>
</filter>
<filter id="filter22_f_38_2173" x="178.608" y="81.4972" width="834.42" height="295.187" filterUnits="userSpaceOnUse" color-interpolation-filters="sRGB">
<feFlood flood-opacity="0" result="BackgroundImageFix"/>
<feBlend mode="normal" in="SourceGraphic" in2="BackgroundImageFix" result="shape"/>
<feGaussianBlur stdDeviation="9.91327" result="effect1_foregroundBlur_38_2173"/>
</filter>
<filter id="filter23_f_38_2173" x="180.155" y="68.9346" width="841.297" height="282.119" filterUnits="userSpaceOnUse" color-interpolation-filters="sRGB">
<feFlood flood-opacity="0" result="BackgroundImageFix"/>
<feBlend mode="normal" in="SourceGraphic" in2="BackgroundImageFix" result="shape"/>
<feGaussianBlur stdDeviation="10.1667" result="effect1_foregroundBlur_38_2173"/>
</filter>
<filter id="filter24_f_38_2173" x="181.123" y="57.2616" width="847.303" height="270.156" filterUnits="userSpaceOnUse" color-interpolation-filters="sRGB">
<feFlood flood-opacity="0" result="BackgroundImageFix"/>
<feBlend mode="normal" in="SourceGraphic" in2="BackgroundImageFix" result="shape"/>
<feGaussianBlur stdDeviation="10.403" result="effect1_foregroundBlur_38_2173"/>
</filter>
<filter id="filter25_f_38_2173" x="181.612" y="46.4905" width="852.523" height="259.203" filterUnits="userSpaceOnUse" color-interpolation-filters="sRGB">
<feFlood flood-opacity="0" result="BackgroundImageFix"/>
<feBlend mode="normal" in="SourceGraphic" in2="BackgroundImageFix" result="shape"/>
<feGaussianBlur stdDeviation="10.6222" result="effect1_foregroundBlur_38_2173"/>
</filter>
<filter id="filter26_f_38_2173" x="181.714" y="36.625" width="857.033" height="249.195" filterUnits="userSpaceOnUse" color-interpolation-filters="sRGB">
<feFlood flood-opacity="0" result="BackgroundImageFix"/>
<feBlend mode="normal" in="SourceGraphic" in2="BackgroundImageFix" result="shape"/>
<feGaussianBlur stdDeviation="10.8242" result="effect1_foregroundBlur_38_2173"/>
</filter>
<filter id="filter27_f_38_2173" x="181.517" y="27.6605" width="860.906" height="240.088" filterUnits="userSpaceOnUse" color-interpolation-filters="sRGB">
<feFlood flood-opacity="0" result="BackgroundImageFix"/>
<feBlend mode="normal" in="SourceGraphic" in2="BackgroundImageFix" result="shape"/>
<feGaussianBlur stdDeviation="11.0091" result="effect1_foregroundBlur_38_2173"/>
</filter>
<filter id="filter28_f_38_2173" x="181.097" y="19.5897" width="864.208" height="231.856" filterUnits="userSpaceOnUse" color-interpolation-filters="sRGB">
<feFlood flood-opacity="0" result="BackgroundImageFix"/>
<feBlend mode="normal" in="SourceGraphic" in2="BackgroundImageFix" result="shape"/>
<feGaussianBlur stdDeviation="11.1768" result="effect1_foregroundBlur_38_2173"/>
</filter>
<filter id="filter29_f_38_2173" x="180.527" y="12.4013" width="867.002" height="224.482" filterUnits="userSpaceOnUse" color-interpolation-filters="sRGB">
<feFlood flood-opacity="0" result="BackgroundImageFix"/>
<feBlend mode="normal" in="SourceGraphic" in2="BackgroundImageFix" result="shape"/>
<feGaussianBlur stdDeviation="11.3274" result="effect1_foregroundBlur_38_2173"/>
</filter>
<filter id="filter30_f_38_2173" x="179.87" y="6.08075" width="869.34" height="217.954" filterUnits="userSpaceOnUse" color-interpolation-filters="sRGB">
<feFlood flood-opacity="0" result="BackgroundImageFix"/>
<feBlend mode="normal" in="SourceGraphic" in2="BackgroundImageFix" result="shape"/>
<feGaussianBlur stdDeviation="11.4608" result="effect1_foregroundBlur_38_2173"/>
</filter>
</defs>
</svg>
