<svg width="60" height="61" viewBox="0 0 60 61" fill="none" xmlns="http://www.w3.org/2000/svg">
<g clip-path="url(#clip0_135_40)">
<path d="M1.28047 29.8725C1.27906 34.9531 2.60656 39.9138 5.13078 44.2863L1.03906 59.2259L16.3278 55.2171C20.5565 57.5192 25.2944 58.7254 30.1091 58.7257L30.1217 58.7257C46.0159 58.7257 58.9541 45.7922 58.9609 29.8952C58.9639 22.192 55.9667 14.9484 50.5213 9.49875C45.0767 4.04954 37.8357 1.04696 30.1205 1.04344C14.2245 1.04344 1.28727 13.9763 1.2807 29.8725" fill="url(#paint0_linear_135_40)"/>
<path d="M0.250782 29.8631C0.249141 35.1265 1.62422 40.2647 4.23844 44.7937L4.80504e-07 60.2688L15.837 56.1164C20.2005 58.4955 25.1135 59.7499 30.1127 59.7518L30.1256 59.7518C46.59 59.7518 59.993 46.353 60 29.887C60.0028 21.907 56.8978 14.403 51.2578 8.75812C45.6171 3.11391 38.1171 0.00328095 30.1256 -2.40182e-07C13.6584 -1.08894e-07 0.257344 13.3969 0.250782 29.8631ZM9.68203 44.0138L9.0907 43.0751C6.60492 39.1226 5.29289 34.5551 5.29477 29.865C5.30016 16.1787 16.4386 5.04375 30.135 5.04375C36.7678 5.04656 43.0013 7.63219 47.6897 12.3234C52.3779 17.0152 54.9577 23.2519 54.956 29.8852C54.9499 43.5715 43.8112 54.7078 30.1256 54.7078L30.1158 54.7078C25.6596 54.7055 21.2892 53.5088 17.4778 51.2473L16.5708 50.7094L7.17281 53.1734L9.68203 44.0135L9.68203 44.0138Z" fill="url(#paint1_linear_135_40)"/>
<path d="M22.6591 17.3784C22.0999 16.1355 21.5113 16.1105 20.9796 16.0887C20.5441 16.0699 20.0463 16.0713 19.5489 16.0713C19.0511 16.0713 18.2423 16.2586 17.5586 17.0051C16.8742 17.7523 14.9458 19.5579 14.9458 23.2303C14.9458 26.903 17.6207 30.4521 17.9936 30.9506C18.367 31.4482 23.1576 39.2257 30.7448 42.2177C37.0504 44.7042 38.3336 44.2097 39.7021 44.085C41.0709 43.9608 44.1187 42.2798 44.7405 40.5368C45.3628 38.794 45.3628 37.3001 45.1762 36.9879C44.9896 36.6769 44.4918 36.4901 43.7453 36.117C42.9986 35.7436 39.3288 33.9377 38.6446 33.6886C37.9603 33.4397 37.4627 33.3155 36.9649 34.0629C36.4671 34.8091 35.0376 36.4901 34.6019 36.9879C34.1667 37.4869 33.731 37.549 32.9847 37.1756C32.2378 36.8011 29.8338 36.0138 26.9817 33.4711C24.7626 31.4925 23.2645 29.0491 22.829 28.3017C22.3935 27.5555 22.7824 27.1509 23.1567 26.779C23.4921 26.4445 23.9034 25.9073 24.277 25.4716C24.6492 25.0357 24.7734 24.7247 25.0223 24.2269C25.2714 23.7286 25.1467 23.2927 24.9604 22.9193C24.7734 22.5459 23.3228 18.8543 22.6591 17.3784Z" fill="white"/>
</g>
<defs>
<linearGradient id="paint0_linear_135_40" x1="2897.13" y1="5819.29" x2="2897.13" y2="1.04342" gradientUnits="userSpaceOnUse">
<stop stop-color="#1FAF38"/>
<stop offset="1" stop-color="#60D669"/>
</linearGradient>
<linearGradient id="paint1_linear_135_40" x1="3000" y1="6026.88" x2="3000" y2="-2.3918e-05" gradientUnits="userSpaceOnUse">
<stop stop-color="#F9F9F9"/>
<stop offset="1" stop-color="white"/>
</linearGradient>
<clipPath id="clip0_135_40">
<rect width="60" height="60.4688" fill="white"/>
</clipPath>
</defs>
</svg>
