<svg width="240" height="256" viewBox="0 0 240 256" fill="none" xmlns="http://www.w3.org/2000/svg">
<path d="M120.838 116.174L121.299 118.265L122.633 116.59L166.973 60.9086L128.663 120.899L127.511 122.703L129.638 122.462L200.364 114.442L130.855 129.773L128.765 130.234L130.439 131.567L186.121 175.907L126.131 137.597L124.327 136.445L124.568 138.572L132.587 209.298L117.257 139.79L116.796 137.699L115.462 139.374L71.1222 195.055L109.432 135.065L110.584 133.261L108.457 133.502L37.7312 141.522L107.24 126.191L109.33 125.73L107.656 124.397L51.9743 80.0565L111.965 118.366L113.769 119.519L113.528 117.391L105.508 46.6655L120.838 116.174Z" stroke="#161616" stroke-width="2.04069"/>
<path d="M163.929 151.697C150.534 176.344 133.434 195.898 116.661 207.605C99.8318 219.351 83.6214 223.021 71.7657 216.578C59.91 210.135 54.1711 194.536 54.8721 174.025C55.5706 153.583 62.6762 128.597 76.071 103.95C89.4659 79.3025 106.566 59.7485 123.339 48.0418C140.168 36.296 156.379 32.6261 168.234 39.0691C180.09 45.5122 185.829 61.1107 185.128 81.6215C184.429 102.064 177.324 127.05 163.929 151.697Z" stroke="#161616" stroke-width="2.04069"/>
</svg>
