<svg width="46" height="46" viewBox="0 0 46 46" fill="none" xmlns="http://www.w3.org/2000/svg">
<path d="M43 31.75C40 31.75 36.75 31.25 34 30.25L33.25 30.25C32.5 30.25 32 30.5 31.5 31L26 36.5C19 32.75 13 27 9.5 20L15 14.5C15.75 13.75 16 12.75 15.5 12C14.75 9.25 14.25 6 14.25 3C14.25 1.75 13 0.5 11.75 0.5L3 0.5C1.75 0.5 0.5 1.75 0.5 3C0.5 26.5 19.5 45.5 43 45.5C44.25 45.5 45.5 44.25 45.5 43L45.5 34.25C45.5 33 44.25 31.75 43 31.75ZM5.5 5.5L9.25 5.5C9.5 7.75 10 10 10.5 12L7.5 15C6.5 12 5.75 8.75 5.5 5.5ZM40.5 40.5C37.25 40.25 34 39.5 31 38.5L34 35.5C36 36 38.25 36.5 40.5 36.5L40.5 40.5Z" fill="#2A9A03"/>
</svg>
